{
    "asset" : {
        "generator" : "Khronos glTF Blender I/O v1.5.17",
        "version" : "2.0"
    },
    "scene" : 0,
    "scenes" : [
        {
            "name" : "Scene",
            "nodes" : [
                0,
                1,
                2,
                3,
                4,
                5,
                6,
                7,
                8,
                9,
                10,
                11,
                12,
                13
            ]
        }
    ],
    "nodes" : [
        {
            "name" : "Spot",
            "rotation" : [
                0.5558955669403076,
                0.2614661157131195,
                -0.18977412581443787,
                0.7658992409706116
            ],
            "translation" : [
                9.17989444732666,
                2.479949951171875,
                7.172821521759033
            ]
        },
        {
            "mesh" : 0,
            "name" : "ground",
            "scale" : [
                30,
                30,
                30
            ],
            "translation" : [
                0,
                -1.5812828540802002,
                0
            ]
        },
        {
            "mesh" : 1,
            "name" : "wheels",
            "rotation" : [
                0.7016459703445435,
                -0.0877092182636261,
                -0.08770924806594849,
                0.7016460299491882
            ],
            "scale" : [
                0.34091073274612427,
                0.1355084776878357,
                0.3828083276748657
            ],
            "translation" : [
                -1.2052547931671143,
                -1.188342571258545,
                1.1544694900512695
            ]
        },
        {
            "mesh" : 2,
            "name" : "wheel_support",
            "rotation" : [
                0,
                0,
                -0.12403958290815353,
                0.9922772645950317
            ],
            "scale" : [
                0.10027581453323364,
                0.10068288445472717,
                1
            ],
            "translation" : [
                -1.0795726776123047,
                -0.6954867839813232,
                0
            ]
        },
        {
            "name" : "Sun",
            "rotation" : [
                0.10750117152929306,
                0.12680833041667938,
                0.6376509070396423,
                0.7521731853485107
            ],
            "translation" : [
                -11.106216430664062,
                2.3687775135040283,
                5.015812873840332
            ]
        },
        {
            "name" : "Camera",
            "rotation" : [
                0.5361708402633667,
                -0.4610009491443634,
                0.46100109815597534,
                0.5361688137054443
            ],
            "translation" : [
                -6.8514909744262695,
                -0.366407185792923,
                1.9689159393310547
            ]
        },
        {
            "name" : "frontMetal",
            "rotation" : [
                0,
                0,
                -0.12403958290815353,
                0.9922772645950317
            ],
            "translation" : [
                -2.410815715789795,
                0.4538157880306244,
                0
            ]
        },
        {
            "name" : "Plane",
            "rotation" : [
                0,
                0,
                -0.12403958290815353,
                0.9922772645950317
            ],
            "translation" : [
                -3.0225625038146973,
                0.6091864705085754,
                -0.0017923414707183838
            ]
        },
        {
            "mesh" : 3,
            "name" : "blades",
            "rotation" : [
                0,
                0,
                -0.12403958290815353,
                0.9922772645950317
            ],
            "translation" : [
                -3.048370599746704,
                0.6157411336898804,
                0
            ]
        },
        {
            "mesh" : 4,
            "name" : "supports",
            "rotation" : [
                0,
                0,
                -0.12403958290815353,
                0.9922772645950317
            ],
            "scale" : [
                0.14995044469833374,
                0.9491007328033447,
                0.14995044469833374
            ],
            "translation" : [
                -0.579482913017273,
                0.852695882320404,
                2.42523455619812
            ]
        },
        {
            "mesh" : 5,
            "name" : "tail",
            "rotation" : [
                -0.6834098696708679,
                0.1815241426229477,
                -0.18152408301830292,
                0.6834098100662231
            ],
            "scale" : [
                1,
                1,
                1.867051124572754
            ],
            "translation" : [
                3.015483856201172,
                -0.593681275844574,
                0
            ]
        },
        {
            "mesh" : 6,
            "name" : "back_wings",
            "rotation" : [
                0,
                0,
                -0.12403958290815353,
                0.9922772645950317
            ],
            "scale" : [
                1,
                1,
                1.867051124572754
            ],
            "translation" : [
                2.5096371173858643,
                -0.7164947986602783,
                0
            ]
        },
        {
            "mesh" : 7,
            "name" : "front_wings",
            "rotation" : [
                0,
                0,
                -0.12403958290815353,
                0.9922772645950317
            ],
            "scale" : [
                1,
                1,
                4.896294116973877
            ],
            "translation" : [
                -0.5266796350479126,
                -0.02909783646464348,
                0
            ]
        },
        {
            "mesh" : 8,
            "name" : "body",
            "rotation" : [
                0,
                0,
                -0.12403958290815353,
                0.9922772645950317
            ],
            "translation" : [
                0.001407921314239502,
                -0.15883752703666687,
                0
            ]
        }
    ],
    "materials" : [
        {
            "doubleSided" : true,
            "name" : "ground",
            "pbrMetallicRoughness" : {}
        },
        {
            "doubleSided" : true,
            "name" : "wheels",
            "pbrMetallicRoughness" : {}
        },
        {
            "doubleSided" : true,
            "name" : "supports",
            "pbrMetallicRoughness" : {}
        },
        {
            "doubleSided" : true,
            "name" : "blades",
            "pbrMetallicRoughness" : {}
        },
        {
            "doubleSided" : true,
            "name" : "wings",
            "pbrMetallicRoughness" : {}
        },
        {
            "doubleSided" : true,
            "name" : "body",
            "pbrMetallicRoughness" : {}
        },
        {
            "doubleSided" : true,
            "name" : "seats",
            "pbrMetallicRoughness" : {}
        }
    ],
    "meshes" : [
        {
            "name" : "Plane.006",
            "primitives" : [
                {
                    "attributes" : {
                        "POSITION" : 0,
                        "NORMAL" : 1
                    },
                    "indices" : 2,
                    "material" : 0
                }
            ]
        },
        {
            "name" : "Cylinder",
            "primitives" : [
                {
                    "attributes" : {
                        "POSITION" : 3,
                        "NORMAL" : 4
                    },
                    "indices" : 5,
                    "material" : 1
                }
            ]
        },
        {
            "name" : "Cube",
            "primitives" : [
                {
                    "attributes" : {
                        "POSITION" : 6,
                        "NORMAL" : 7
                    },
                    "indices" : 8,
                    "material" : 2
                }
            ]
        },
        {
            "name" : "Torus",
            "primitives" : [
                {
                    "attributes" : {
                        "POSITION" : 9,
                        "NORMAL" : 10
                    },
                    "indices" : 11,
                    "material" : 3
                }
            ]
        },
        {
            "name" : "Cylinder.001",
            "primitives" : [
                {
                    "attributes" : {
                        "POSITION" : 12,
                        "NORMAL" : 13
                    },
                    "indices" : 14,
                    "material" : 2
                }
            ]
        },
        {
            "name" : "Plane.004",
            "primitives" : [
                {
                    "attributes" : {
                        "POSITION" : 15,
                        "NORMAL" : 16
                    },
                    "indices" : 17,
                    "material" : 4
                }
            ]
        },
        {
            "name" : "Plane.003",
            "primitives" : [
                {
                    "attributes" : {
                        "POSITION" : 18,
                        "NORMAL" : 19
                    },
                    "indices" : 20,
                    "material" : 4
                }
            ]
        },
        {
            "name" : "Plane.002",
            "primitives" : [
                {
                    "attributes" : {
                        "POSITION" : 21,
                        "NORMAL" : 22
                    },
                    "indices" : 20,
                    "material" : 4
                }
            ]
        },
        {
            "name" : "Plane.001",
            "primitives" : [
                {
                    "attributes" : {
                        "POSITION" : 23,
                        "NORMAL" : 24
                    },
                    "indices" : 25,
                    "material" : 5
                },
                {
                    "attributes" : {
                        "POSITION" : 26,
                        "NORMAL" : 27
                    },
                    "indices" : 28,
                    "material" : 6
                }
            ]
        }
    ],
    "accessors" : [
        {
            "bufferView" : 0,
            "componentType" : 5126,
            "count" : 4,
            "max" : [
                1,
                0,
                1
            ],
            "min" : [
                -1,
                0,
                -1
            ],
            "type" : "VEC3"
        },
        {
            "bufferView" : 1,
            "componentType" : 5126,
            "count" : 4,
            "type" : "VEC3"
        },
        {
            "bufferView" : 2,
            "componentType" : 5123,
            "count" : 6,
            "type" : "SCALAR"
        },
        {
            "bufferView" : 3,
            "componentType" : 5126,
            "count" : 128,
            "max" : [
                1,
                1,
                1
            ],
            "min" : [
                -1,
                -1,
                -1
            ],
            "type" : "VEC3"
        },
        {
            "bufferView" : 4,
            "componentType" : 5126,
            "count" : 128,
            "type" : "VEC3"
        },
        {
            "bufferView" : 5,
            "componentType" : 5123,
            "count" : 756,
            "type" : "SCALAR"
        },
        {
            "bufferView" : 6,
            "componentType" : 5126,
            "count" : 48,
            "max" : [
                1.5301395654678345,
                7.523981094360352,
                1.4696614742279053
            ],
            "min" : [
                -1.5301395654678345,
                -6.9308857917785645,
                0
            ],
            "type" : "VEC3"
        },
        {
            "bufferView" : 7,
            "componentType" : 5126,
            "count" : 48,
            "type" : "VEC3"
        },
        {
            "bufferView" : 8,
            "componentType" : 5123,
            "count" : 270,
            "type" : "SCALAR"
        },
        {
            "bufferView" : 9,
            "componentType" : 5126,
            "count" : 720,
            "max" : [
                0.19697384536266327,
                1.3849234580993652,
                1.3849234580993652
            ],
            "min" : [
                -0.19697454571723938,
                -1.3849234580993652,
                -1.3849234580993652
            ],
            "type" : "VEC3"
        },
        {
            "bufferView" : 10,
            "componentType" : 5126,
            "count" : 720,
            "type" : "VEC3"
        },
        {
            "bufferView" : 11,
            "componentType" : 5123,
            "count" : 4248,
            "type" : "SCALAR"
        },
        {
            "bufferView" : 12,
            "componentType" : 5126,
            "count" : 64,
            "max" : [
                1,
                1,
                1
            ],
            "min" : [
                -1,
                -1,
                -1
            ],
            "type" : "VEC3"
        },
        {
            "bufferView" : 13,
            "componentType" : 5126,
            "count" : 64,
            "type" : "VEC3"
        },
        {
            "bufferView" : 14,
            "componentType" : 5123,
            "count" : 372,
            "type" : "SCALAR"
        },
        {
            "bufferView" : 15,
            "componentType" : 5126,
            "count" : 8,
            "max" : [
                1.7034164667129517,
                1.737727117756549e-08,
                0.8362253904342651
            ],
            "min" : [
                -0.9548998475074768,
                -1.1897604679234064e-07,
                0.06501611322164536
            ],
            "type" : "VEC3"
        },
        {
            "bufferView" : 16,
            "componentType" : 5126,
            "count" : 8,
            "type" : "VEC3"
        },
        {
            "bufferView" : 17,
            "componentType" : 5123,
            "count" : 18,
            "type" : "SCALAR"
        },
        {
            "bufferView" : 18,
            "componentType" : 5126,
            "count" : 10,
            "max" : [
                1.9090864658355713,
                0,
                1
            ],
            "min" : [
                -1,
                0,
                0
            ],
            "type" : "VEC3"
        },
        {
            "bufferView" : 19,
            "componentType" : 5126,
            "count" : 10,
            "type" : "VEC3"
        },
        {
            "bufferView" : 20,
            "componentType" : 5123,
            "count" : 24,
            "type" : "SCALAR"
        },
        {
            "bufferView" : 21,
            "componentType" : 5126,
            "count" : 10,
            "max" : [
                1.9090864658355713,
                0,
                1
            ],
            "min" : [
                -1,
                0,
                0
            ],
            "type" : "VEC3"
        },
        {
            "bufferView" : 22,
            "componentType" : 5126,
            "count" : 10,
            "type" : "VEC3"
        },
        {
            "bufferView" : 23,
            "componentType" : 5126,
            "count" : 256,
            "max" : [
                4.154437065124512,
                1.092987060546875,
                1.092987060546875
            ],
            "min" : [
                -2.902120590209961,
                -1.092987060546875,
                -1.092987060546875
            ],
            "type" : "VEC3"
        },
        {
            "bufferView" : 24,
            "componentType" : 5126,
            "count" : 256,
            "type" : "VEC3"
        },
        {
            "bufferView" : 25,
            "componentType" : 5123,
            "count" : 1416,
            "type" : "SCALAR"
        },
        {
            "bufferView" : 26,
            "componentType" : 5126,
            "count" : 20,
            "max" : [
                0.4053170382976532,
                1.0906389951705933,
                0.7711982131004333
            ],
            "min" : [
                -0.936775803565979,
                0.17097671329975128,
                -0.7711982727050781
            ],
            "type" : "VEC3"
        },
        {
            "bufferView" : 27,
            "componentType" : 5126,
            "count" : 20,
            "type" : "VEC3"
        },
        {
            "bufferView" : 28,
            "componentType" : 5123,
            "count" : 84,
            "type" : "SCALAR"
        }
    ],
    "bufferViews" : [
        {
            "buffer" : 0,
            "byteLength" : 48,
            "byteOffset" : 0
        },
        {
            "buffer" : 0,
            "byteLength" : 48,
            "byteOffset" : 48
        },
        {
            "buffer" : 0,
            "byteLength" : 12,
            "byteOffset" : 96
        },
        {
            "buffer" : 0,
            "byteLength" : 1536,
            "byteOffset" : 108
        },
        {
            "buffer" : 0,
            "byteLength" : 1536,
            "byteOffset" : 1644
        },
        {
            "buffer" : 0,
            "byteLength" : 1512,
            "byteOffset" : 3180
        },
        {
            "buffer" : 0,
            "byteLength" : 576,
            "byteOffset" : 4692
        },
        {
            "buffer" : 0,
            "byteLength" : 576,
            "byteOffset" : 5268
        },
        {
            "buffer" : 0,
            "byteLength" : 540,
            "byteOffset" : 5844
        },
        {
            "buffer" : 0,
            "byteLength" : 8640,
            "byteOffset" : 6384
        },
        {
            "buffer" : 0,
            "byteLength" : 8640,
            "byteOffset" : 15024
        },
        {
            "buffer" : 0,
            "byteLength" : 8496,
            "byteOffset" : 23664
        },
        {
            "buffer" : 0,
            "byteLength" : 768,
            "byteOffset" : 32160
        },
        {
            "buffer" : 0,
            "byteLength" : 768,
            "byteOffset" : 32928
        },
        {
            "buffer" : 0,
            "byteLength" : 744,
            "byteOffset" : 33696
        },
        {
            "buffer" : 0,
            "byteLength" : 96,
            "byteOffset" : 34440
        },
        {
            "buffer" : 0,
            "byteLength" : 96,
            "byteOffset" : 34536
        },
        {
            "buffer" : 0,
            "byteLength" : 36,
            "byteOffset" : 34632
        },
        {
            "buffer" : 0,
            "byteLength" : 120,
            "byteOffset" : 34668
        },
        {
            "buffer" : 0,
            "byteLength" : 120,
            "byteOffset" : 34788
        },
        {
            "buffer" : 0,
            "byteLength" : 48,
            "byteOffset" : 34908
        },
        {
            "buffer" : 0,
            "byteLength" : 120,
            "byteOffset" : 34956
        },
        {
            "buffer" : 0,
            "byteLength" : 120,
            "byteOffset" : 35076
        },
        {
            "buffer" : 0,
            "byteLength" : 3072,
            "byteOffset" : 35196
        },
        {
            "buffer" : 0,
            "byteLength" : 3072,
            "byteOffset" : 38268
        },
        {
            "buffer" : 0,
            "byteLength" : 2832,
            "byteOffset" : 41340
        },
        {
            "buffer" : 0,
            "byteLength" : 240,
            "byteOffset" : 44172
        },
        {
            "buffer" : 0,
            "byteLength" : 240,
            "byteOffset" : 44412
        },
        {
            "buffer" : 0,
            "byteLength" : 168,
            "byteOffset" : 44652
        }
    ],
    "buffers" : [
        {
            "byteLength" : 44820,
            "uri" : "data:application/octet-stream;base64,"
        }
    ]
}
